<?xml version="1.0" encoding="UTF-8"?>
<svg width="267px" height="65px" viewBox="0 0 267 65" version="1.1" xmlns="http://www.w3.org/2000/svg" xmlns:xlink="http://www.w3.org/1999/xlink">
    <!-- Generator: Sketch 55.2 (78181) - https://sketchapp.com -->
    <title>Combined Shape</title>
    <desc>Created with Sketch.</desc>
    <g id="Logo" stroke="none" stroke-width="1" fill="none" fill-rule="evenodd">
        <g id="Desktop" transform="translate(-321.000000, -423.000000)" fill="#6369D1" fill-rule="nonzero">
            <path d="M321,449.1 C321,445.739983 321.619994,442.610014 322.86,439.71 C324.100006,436.809985 325.819989,434.280011 328.02,432.12 C330.220011,429.959989 332.849985,428.270006 335.91,427.05 C338.970015,425.829994 342.339982,425.22 346.02,425.22 C349.660018,425.22 353.019985,425.829994 356.1,427.05 C359.180015,428.270006 361.829989,429.959989 364.05,432.12 C366.270011,434.280011 367.999994,436.809985 369.24,439.71 C370.480006,442.610014 371.1,445.739983 371.1,449.1 C371.1,452.220016 370.590005,455.119987 369.57,457.8 C368.549995,460.480013 367.08001,462.85999 365.16,464.94 L372.84,472.98 L362.04,474.66 L357.9,470.4 C356.139991,471.200004 354.27001,471.829998 352.29,472.29 C350.30999,472.750002 348.220011,472.98 346.02,472.98 C342.339982,472.98 338.970015,472.370006 335.91,471.15 C332.849985,469.929994 330.220011,468.240011 328.02,466.08 C325.819989,463.919989 324.100006,461.390014 322.86,458.49 C321.619994,455.589985 321,452.460017 321,449.1 Z M333.3,449.1 C333.3,450.900009 333.639997,452.559992 334.32,454.08 C335.000003,455.600008 335.919994,456.919994 337.08,458.04 C338.240006,459.160006 339.589992,460.029997 341.13,460.65 C342.670008,461.270003 344.299991,461.58 346.02,461.58 C347.060005,461.58 348.099995,461.460001 349.14,461.22 L342.42,454.14 L353.52,452.76 L356.64,456.06 C358.080007,454.05999 358.8,451.740013 358.8,449.1 C358.8,447.299991 358.460003,445.640008 357.78,444.12 C357.099997,442.599992 356.170006,441.280006 354.99,440.16 C353.809994,439.039994 352.450008,438.170003 350.91,437.55 C349.369992,436.929997 347.740009,436.62 346.02,436.62 C344.299991,436.62 342.670008,436.929997 341.13,437.55 C339.589992,438.170003 338.240006,439.039994 337.08,440.16 C335.919994,441.280006 335.000003,442.599992 334.32,444.12 C333.639997,445.640008 333.3,447.299991 333.3,449.1 Z M388.38,440.94 L388.38,458.28 C388.38,462.080019 390.219982,463.98 393.9,463.98 C397.580018,463.98 399.42,462.080019 399.42,458.28 L399.42,440.94 L410.28,440.94 L410.28,460.38 C410.28,464.540021 408.910014,467.65999 406.17,469.74 C403.429986,471.82001 399.340027,472.86 393.9,472.86 C388.459973,472.86 384.370014,471.82001 381.63,469.74 C378.889986,467.65999 377.52,464.540021 377.52,460.38 L377.52,440.94 L388.38,440.94 Z M428.52,440.94 L428.52,471.72 L417.66,471.72 L417.66,440.94 L428.52,440.94 Z M416.94,429.12 C416.94,428.279996 417.099998,427.490004 417.42,426.75 C417.740002,426.009996 418.179997,425.360003 418.74,424.8 C419.300003,424.239997 419.949996,423.800002 420.69,423.48 C421.430004,423.159998 422.219996,423 423.06,423 C423.900004,423 424.689996,423.159998 425.43,423.48 C426.170004,423.800002 426.819997,424.239997 427.38,424.8 C427.940003,425.360003 428.379998,426.009996 428.7,426.75 C429.020002,427.490004 429.18,428.279996 429.18,429.12 C429.18,429.960004 429.020002,430.749996 428.7,431.49 C428.379998,432.230004 427.940003,432.879997 427.38,433.44 C426.819997,434.000003 426.170004,434.439998 425.43,434.76 C424.689996,435.080002 423.900004,435.24 423.06,435.24 C422.219996,435.24 421.430004,435.080002 420.69,434.76 C419.949996,434.439998 419.300003,434.000003 418.74,433.44 C418.179997,432.879997 417.740002,432.230004 417.42,431.49 C417.099998,430.749996 416.94,429.960004 416.94,429.12 Z M451.8,462.66 L464.76,462.66 L464.76,471.72 L433.56,471.72 L448.08,450 L435.54,450 L435.54,440.94 L466.2,440.94 L451.8,462.66 Z M500.8,445.44 L508.3,445.44 L508.3,454.44 L500.8,454.44 L500.8,462.48 L503.5,462.48 C505.54001,462.48 507.359992,462.160003 508.96,461.52 C510.560008,460.879997 511.909995,460.000006 513.01,458.88 C514.110005,457.759994 514.949997,456.430008 515.53,454.89 C516.110003,453.349992 516.4,451.660009 516.4,449.82 C516.4,448.019991 516.100003,446.340008 515.5,444.78 C514.899997,443.219992 514.050005,441.880006 512.95,440.76 C511.849994,439.639994 510.500008,438.760003 508.9,438.12 C507.299992,437.479997 505.50001,437.16 503.5,437.16 L500.8,437.16 L500.8,445.44 Z M489.04,454.44 L470.3,454.44 L470.3,445.44 L477.3,445.44 L489.04,445.44 L489.04,427.2 L506.44,427.2 C509.520015,427.2 512.409987,427.819994 515.11,429.06 C517.810013,430.300006 520.16999,431.94999 522.19,434.01 C524.21001,436.07001 525.799994,438.469986 526.96,441.21 C528.120006,443.950014 528.7,446.819985 528.7,449.82 C528.7,452.780015 528.130006,455.629986 526.99,458.37 C525.849994,461.110014 524.27001,463.51999 522.25,465.6 C520.22999,467.68001 517.870014,469.339994 515.17,470.58 C512.469987,471.820006 509.560016,472.44 506.44,472.44 L489.04,472.44 L489.04,454.44 Z M546.04,441.66 L546.04,472.44 L535.18,472.44 L535.18,441.66 L546.04,441.66 Z M534.46,429.84 C534.46,428.999996 534.619998,428.210004 534.94,427.47 C535.260002,426.729996 535.699997,426.080003 536.26,425.52 C536.820003,424.959997 537.469996,424.520002 538.21,424.2 C538.950004,423.879998 539.739996,423.72 540.58,423.72 C541.420004,423.72 542.209996,423.879998 542.95,424.2 C543.690004,424.520002 544.339997,424.959997 544.9,425.52 C545.460003,426.080003 545.899998,426.729996 546.22,427.47 C546.540002,428.210004 546.7,428.999996 546.7,429.84 C546.7,430.680004 546.540002,431.469996 546.22,432.21 C545.899998,432.950004 545.460003,433.599997 544.9,434.16 C544.339997,434.720003 543.690004,435.159998 542.95,435.48 C542.209996,435.800002 541.420004,435.96 540.58,435.96 C539.739996,435.96 538.950004,435.800002 538.21,435.48 C537.469996,435.159998 536.820003,434.720003 536.26,434.16 C535.699997,433.599997 535.260002,432.950004 534.94,432.21 C534.619998,431.469996 534.46,430.680004 534.46,429.84 Z M563.56,456.9 C563.56,457.900005 563.739998,458.829996 564.1,459.69 C564.460002,460.550004 564.949997,461.299997 565.57,461.94 C566.190003,462.580003 566.929996,463.079998 567.79,463.44 C568.650004,463.800002 569.579995,463.98 570.58,463.98 C571.540005,463.98 572.449996,463.800002 573.31,463.44 C574.170004,463.079998 574.909997,462.580003 575.53,461.94 C576.150003,461.299997 576.649998,460.550004 577.03,459.69 C577.410002,458.829996 577.6,457.920005 577.6,456.96 C577.6,455.959995 577.410002,455.040004 577.03,454.2 C576.649998,453.359996 576.140003,452.620003 575.5,451.98 C574.859997,451.339997 574.110004,450.840002 573.25,450.48 C572.389996,450.119998 571.500005,449.94 570.58,449.94 C569.619995,449.94 568.720004,450.129998 567.88,450.51 C567.039996,450.890002 566.300003,451.389997 565.66,452.01 C565.019997,452.630003 564.510002,453.359996 564.13,454.2 C563.749998,455.040004 563.56,455.939995 563.56,456.9 Z M587.92,441.66 L587.92,470.34 C587.92,472.060009 587.820001,473.599993 587.62,474.96 C587.419999,476.320007 587.140002,477.519995 586.78,478.56 C586.299998,479.880007 585.550005,481.109994 584.53,482.25 C583.509995,483.390006 582.280007,484.379996 580.84,485.22 C579.399993,486.060004 577.770009,486.719998 575.95,487.2 C574.129991,487.680002 572.160011,487.92 570.04,487.92 C567.639988,487.92 565.44001,487.620003 563.44,487.02 C561.43999,486.419997 559.690007,485.590005 558.19,484.53 C556.689993,483.469995 555.460005,482.230007 554.5,480.81 C553.539995,479.389993 552.900002,477.840008 552.58,476.16 L564.82,476.16 C565.580004,478.20001 567.299987,479.22 569.98,479.22 C572.260011,479.22 574.009994,478.580006 575.23,477.3 C576.450006,476.019994 577.06,474.240011 577.06,471.96 L577.06,469.02 C576.259996,469.780004 575.490004,470.409998 574.75,470.91 C574.009996,471.410003 573.260004,471.819998 572.5,472.14 C571.739996,472.460002 570.940004,472.689999 570.1,472.83 C569.259996,472.970001 568.340005,473.04 567.34,473.04 C565.139989,473.04 563.120009,472.660004 561.28,471.9 C559.439991,471.139996 557.850007,470.080007 556.51,468.72 C555.169993,467.359993 554.130004,465.730009 553.39,463.83 C552.649996,461.929991 552.28,459.820012 552.28,457.5 C552.28,455.139988 552.679996,452.95001 553.48,450.93 C554.280004,448.90999 555.369993,447.150008 556.75,445.65 C558.130007,444.149992 559.76999,442.970004 561.67,442.11 C563.570009,441.249996 565.639989,440.82 567.88,440.82 C571.520018,440.82 574.579988,442.179986 577.06,444.9 L577.06,441.66 L587.92,441.66 Z" id="Combined-Shape"></path>
        </g>
    </g>
</svg>